<svg xmlns="http://www.w3.org/2000/svg" width="51.042" height="53.199" viewBox="0 0 51.042 53.199"><defs><style>.a{fill:#fff;}</style></defs><g transform="translate(-231.814 -1853.888)"><path class="a" d="M264.505,1853.888a1.124,1.124,0,0,1,.581,1.117c-.021,1.052,0,2.1-.011,3.157-.009.639-.362,1-.9.942a.745.745,0,0,1-.737-.783c-.018-1.208-.04-2.417.019-3.621.013-.279.345-.542.53-.812Z"/><path class="a" d="M248.154,1900.109c.347.6.667,1.138.966,1.683a1.989,1.989,0,0,1-.743,2.827q-1.869,1.117-3.774,2.177a1.966,1.966,0,0,1-2.779-.76q-4.866-8.392-9.7-16.8a1.989,1.989,0,0,1,.754-2.825q1.851-1.1,3.728-2.153a2.012,2.012,0,0,1,2.83.751c.332.544.641,1.1.982,1.69,1.484-.856,2.931-1.693,4.381-2.525.345-.2.692-.394,1.054-.557a5.6,5.6,0,0,1,3.506-.306l15.295,3.11a3.884,3.884,0,0,1,2.885,2.333c.191-.121.349-.217.5-.32,2.957-1.957,5.909-3.922,8.872-5.869a3.748,3.748,0,1,1,4.288,6.147c-2.16,1.5-4.348,2.958-6.525,4.432-3.6,2.434-7.214,4.835-10.779,7.313a5.978,5.978,0,0,1-6.168.7c-1.509-.644-3.07-1.168-4.577-1.815a4.227,4.227,0,0,0-4.243.324C248.678,1899.819,248.435,1899.946,248.154,1900.109Zm-.835-1.445c.309-.174.571-.307.818-.463a5.709,5.709,0,0,1,5.6-.41c1.528.645,3.1,1.177,4.627,1.833a4.378,4.378,0,0,0,4.544-.5c4.52-3.107,9.077-6.159,13.62-9.233,1.261-.853,2.527-1.7,3.776-2.57a2.086,2.086,0,0,0-.9-3.77,2.219,2.219,0,0,0-1.655.454q-4.756,3.159-9.524,6.3a1.266,1.266,0,0,0-.579.791,3.68,3.68,0,0,1-4.293,2.715c-2.037-.389-4.067-.817-6.1-1.228q-2.186-.443-4.371-.883c-.458-.092-.823-.349-.771-.82a1.352,1.352,0,0,1,.544-.784c.148-.112.468-.039.7.007q5.06,1.014,10.117,2.044a2.092,2.092,0,1,0,.852-4.087q-7.291-1.492-14.583-2.982a4.676,4.676,0,0,0-3.392.147c-1.674.938-3.327,1.913-4.988,2.875-.023.013-.028.058-.059.126Zm-3.789,6.814c.224-.115.364-.179.5-.256q1.64-.944,3.279-1.891c.541-.313.563-.39.25-.932q-4.718-8.174-9.43-16.35c-.251-.437-.5-.489-.913-.24-1.068.639-2.152,1.25-3.229,1.873-.6.346-.613.4-.265,1.006q2.565,4.447,5.131,8.893,2.127,3.682,4.257,7.362A4.774,4.774,0,0,0,243.53,1905.478Z"/><path class="a" d="M257.881,1867.636c.813,0,1.628-.019,2.44.009a.582.582,0,0,0,.692-.491c.473-1.554.988-3.094,1.494-4.637a1.779,1.779,0,0,1,3.491.017c.51,1.56,1.022,3.119,1.509,4.686a.507.507,0,0,0,.583.423q2.544-.025,5.089-.01a1.742,1.742,0,0,1,1.745,1.219,1.773,1.773,0,0,1-.679,2.019c-.081.064-.167.123-.251.184-1.275.923-2.541,1.859-3.832,2.759a.588.588,0,0,0-.253.809c.519,1.52,1.011,3.05,1.508,4.578a1.791,1.791,0,0,1-2.837,2.08c-1.288-.935-2.583-1.861-3.849-2.825a.676.676,0,0,0-.978.016c-1.269.96-2.563,1.887-3.851,2.822a1.791,1.791,0,0,1-2.834-2.064c.479-1.479.932-2.968,1.465-4.428a.807.807,0,0,0-.382-1.127c-1.283-.881-2.531-1.813-3.79-2.729a1.774,1.774,0,0,1-.8-2.064,1.793,1.793,0,0,1,1.879-1.253c.813-.006,1.627,0,2.44,0Zm.693,12.39.094.073c.137-.086.28-.166.411-.261q1.889-1.373,3.774-2.752a1.91,1.91,0,0,1,2.762-.025c1.274.925,2.542,1.857,3.817,2.781a5.374,5.374,0,0,0,.544.292l-1.674-5.127a1.85,1.85,0,0,1,.808-2.464q1.91-1.387,3.824-2.771c.146-.106.282-.226.422-.339a1.048,1.048,0,0,0-.578-.142c-1.575,0-3.151.008-4.726.007a1.828,1.828,0,0,1-2.1-1.517q-.732-2.268-1.465-4.538c-.052-.162-.129-.317-.194-.475a1.247,1.247,0,0,0-.306.539q-.726,2.244-1.45,4.489a1.818,1.818,0,0,1-2.059,1.5c-1.592,0-3.184-.005-4.777-.006-.176,0-.353.017-.529.027a1.152,1.152,0,0,0,.4.459c1.288.935,2.58,1.864,3.866,2.8a1.837,1.837,0,0,1,.769,2.392c-.493,1.511-.992,3.02-1.486,4.531C258.671,1879.675,258.625,1879.851,258.574,1880.026Z"/><path class="a" d="M279.544,1863.244a1.891,1.891,0,0,1-.448.549c-1,.614-2.018,1.2-3.044,1.766a.81.81,0,0,1-1.159-.319.8.8,0,0,1,.346-1.109c1.009-.6,2.021-1.195,3.05-1.758A.847.847,0,0,1,279.544,1863.244Z"/><path class="a" d="M256.064,1856.138a1.962,1.962,0,0,1,.565.467c.608.983,1.179,1.989,1.743,3a.812.812,0,0,1-.289,1.166.825.825,0,0,1-1.15-.359c-.588-.995-1.173-1.993-1.732-3.005C254.865,1856.8,255.234,1856.148,256.064,1856.138Z"/><path class="a" d="M270.989,1860.868c-.786,0-1.2-.609-.906-1.163.587-1.094,1.217-2.166,1.862-3.227a.777.777,0,0,1,1.1-.21.746.746,0,0,1,.295,1.037c-.592,1.072-1.2,2.136-1.838,3.181C271.375,1860.691,271.087,1860.8,270.989,1860.868Z"/><path class="a" d="M253.7,1864.72c0,.738-.622,1.168-1.172.875-1.1-.585-2.17-1.214-3.229-1.864a.811.811,0,0,1,.777-1.411c1.124.6,2.225,1.253,3.315,1.918C253.566,1864.345,253.639,1864.622,253.7,1864.72Z"/></g></svg>