<svg xmlns="http://www.w3.org/2000/svg" xmlns:xlink="http://www.w3.org/1999/xlink" width="423.818" height="484.441" viewBox="0 0 423.818 484.441"><defs><style>.a,.e{fill:#2fb;}.a,.b,.c,.g,.o{stroke:#1a2e35;stroke-linecap:round;stroke-linejoin:round;}.b,.c{fill:none;}.c{stroke-dasharray:1 2;}.d{fill:rgba(0,0,0,0.7);opacity:0.2;}.f{clip-path:url(#a);}.g,.i{fill:#5ae4a7;}.h,.o{fill:#fff;}.i{opacity:0.4;}.j{clip-path:url(#b);}.k,.n{opacity:0.1;}.l{fill:#1a2e35;}.m{fill:#00ff9d;}</style><clipPath id="a"><path class="a" d="M1149.158,552a2.323,2.323,0,0,1-.358.895c-2.985,3.852-17.348,9.84-29.766,14.474-10.282,3.849-19.231,6.762-19.231,6.762s-16.089-57.384-17.041-63.53-27.7-103.9-27.7-103.9l27.014-5.387,35.9-7.156s.629,2.624,1.713,7.213C1126.584,430.637,1151.887,539.628,1149.158,552Z"/></clipPath><clipPath id="b"><path class="a" d="M1105.821,383.228l75.429,7.875s-13.524,81.235-17.247,91.636l1.795,68.706s-46.6,5.134-68.882,1.994c0,0,2.589-72.259,1.867-81.713S1105.821,383.228,1105.821,383.228Z"/></clipPath></defs><g transform="translate(-830.311 -197.811)"><rect class="b" width="74.715" height="49.056" rx="4.542" transform="translate(1172.217 452.569) rotate(-8.801)"/><line class="b" y1="11.431" x2="73.835" transform="translate(1173.9 452.005)"/><rect class="b" width="12.066" height="17.38" transform="translate(1230.037 466.807) rotate(-8.801)"/><path class="b" d="M1234.881,469.658c2.518-2.969,6.654-.983,5.689,8.3l3.686,1.832.364,2.345-11.924,1.846-.485-3.127,4.5-1.756S1232.512,472.451,1234.881,469.658Z"/><path class="b" d="M1209.009,490.652s8.617.067,6.149-1.653-2.838-3.461-.74-3.487,5.617,3.959,5.342,1.537,1.238-.855,1.527-.7,2.783-.831,2.905-.55-.051,1.109,8.062-.147"/><line class="b" y1="5.599" x2="36.163" transform="translate(1180.161 465.5)"/><line class="b" y1="3.299" x2="21.307" transform="translate(1180.797 471.905)"/><line class="b" y1="4.6" x2="29.712" transform="translate(1181.916 477.837)"/><line class="b" y1="5.614" x2="36.26" transform="translate(1191.139 449.774)"/><path class="b" d="M830.811,432.062l81.07-16.191,28.311,135.919L854.02,570.278Z"/><line class="b" y1="15.564" x2="85.998" transform="translate(850.763 535.315)"/><line class="b" x1="41.067" y2="7.582" transform="translate(885.502 523.755)"/><line class="b" x1="12" y2="1.769" transform="translate(908.482 516.931)"/><line class="b" x1="61.301" y2="11.497" transform="translate(861.009 503.056)"/><line class="c" y1="14.819" x2="83.905" transform="translate(841.414 480.389)"/><line class="b" x1="50.967" y2="10.681" transform="translate(879.602 547.392)"/><line class="b" x1="23.967" y2="4.295" transform="translate(905.086 543.098)"/><line class="b" x1="42.025" y2="8.33" transform="translate(874.064 471.436)"/><line class="b" x1="13.387" y2="2.633" transform="translate(899.383 462.105)"/><line class="b" x1="61.214" y2="11.798" transform="translate(850.763 455.623)"/><line class="b" x1="16.528" y2="3.421" transform="translate(889.888 424.085)"/><line class="b" x1="14.263" y2="2.769" transform="translate(836.5 435.832)"/><path class="b" d="M841.689,446.464a7.412,7.412,0,0,1,3.956-4.643"/><path class="b" d="M848.027,455.623a7.451,7.451,0,0,1-6.613-7.164"/><path class="b" d="M853.593,453.927a6.971,6.971,0,0,1-3.63,1.686"/><path class="b" d="M848.733,441.14a7.459,7.459,0,0,1,6.216,11.181"/><path class="b" d="M863.31,443.027c-1.328-.427-2.651-.908-4.015-1.206"/><path class="b" d="M874.653,443.988c-1.133,2.687-7.454.234-9.3-.323"/><path class="b" d="M863.83,436.847l11.816,2.809c-.186.787-.336,1.583-.486,2.378"/><path class="b" d="M857.976,439.656c1.26-3.045.767-4.018,3.908-3.271"/><path class="b" d="M1017.208,649.891l15.647,4.8-11.628-13.7a40.179,40.179,0,0,0,10.3-25.736"/><path class="b" d="M998.22,655.934a52.869,52.869,0,0,0,14.673-7.366"/><path class="b" d="M937.83,626.838c4.607,22.2,29.15,35.888,54.818,30.562"/><path class="b" d="M941.569,601.8a40.406,40.406,0,0,0-2.5,5.818"/><path class="b" d="M1030.783,607.552c-4.607-22.205-29.15-35.889-54.819-30.563a51.455,51.455,0,0,0-29.715,17.7"/><path class="b" d="M1003.55,599.413c-7.39-8.052-17.461-2.468-21.648,5.7-6.923-6.028-18.349-7.467-22.214,2.755-6.516,17.235,15.786,27.739,26.1,31.547,1.17.44,2.138.8,2.939,1.078.641-.555,1.406-1.25,2.327-2.094C999.208,631.032,1016.006,612.99,1003.55,599.413Z"/><path class="b" d="M1065,271.6l-15.112-6.283,10.255,14.752a40.18,40.18,0,0,0-12.731,24.624"/><path class="b" d="M1084.483,267.412a52.891,52.891,0,0,0-15.314,5.919"/><path class="b" d="M1141.79,302.19c-2.447-22.545-25.558-38.529-51.62-35.7"/><path class="b" d="M1135.656,326.755a40.381,40.381,0,0,0,3.047-5.55"/><path class="b" d="M1047.411,312.433c2.447,22.545,25.558,38.529,51.62,35.7a51.454,51.454,0,0,0,31.282-14.753"/><circle class="b" cx="23.732" cy="23.732" r="23.732" transform="translate(1062.264 295.605) rotate(-28.157)"/><path class="b" d="M1085.371,308.313l7.094,6.7,11.848-20.386"/><path class="d" d="M1124.152,534.911s3.072,43.115,9.752,52.65,20.164,79.706,19.256,88.935c0,0,17.028,1.6,22.6-5.277s16.421-2.771,31.951-11.058-15.941-133.209-15.941-133.209l-6.631-46.194-30.828-19.934Z"/><path class="e" d="M1149.158,552a2.323,2.323,0,0,1-.358.895c-2.985,3.852-17.348,9.84-29.766,14.474-10.282,3.849-19.231,6.762-19.231,6.762s-16.089-57.384-17.041-63.53-27.7-103.9-27.7-103.9l27.014-5.387,35.9-7.156s.629,2.624,1.713,7.213C1126.584,430.637,1151.887,539.628,1149.158,552Z"/><g class="f"><path class="d" d="M1149.158,552l-30.731,11.446-11.606,4.317c-3.746-2.689-6.235-2.364-6.235-2.364l-2.334-8.8-3.817-14.4-33.592-126.652c2.667-2.508,3.417-7.208,3.417-7.208l18.18-3.492,31.493-6.06,5.751,2.571C1126.584,430.637,1151.887,539.628,1149.158,552Z"/><path class="b" d="M1149.158,552l-30.731,11.446-11.606,4.317c-3.746-2.689-6.235-2.364-6.235-2.364l-2.334-8.8-3.817-14.4-33.592-126.652c2.667-2.508,3.417-7.208,3.417-7.208l18.18-3.492,31.493-6.06,5.751,2.571C1126.584,430.637,1151.887,539.628,1149.158,552Z"/><path class="g" d="M1095.512,521.488l10.589-1.656.523,3.312-2.787,1.5-6.672,1.794Z"/><path class="g" d="M1097.219,528.207l7.744-1.473,2.143.643.575,4.408-9.07,1.512Z"/><path class="g" d="M1099.549,535.039l8.8-2.014.409,3.347-4.059,2.185-4.589.448Z"/><path class="g" d="M1100.955,540.573l7.234-.749.938,1.742-.73,2.19-6.359,1.4-1.594-2.961Z"/><path class="g" d="M1110.23,545.721l1.468,2.715a2.188,2.188,0,0,1,.348,1.945,1.664,1.664,0,0,1-1.424.763c-.563.035-1.13-.069-1.69-.007-1.678.184-3.005,1.8-4.692,1.754-.916-1.675-2.935-4.031-.871-5.174C1103.684,547.543,1110.563,546.34,1110.23,545.721Z"/><path class="g" d="M1111.45,553.824a15.3,15.3,0,0,1,.659,2.022,2.657,2.657,0,0,1-.351,2.591,2.85,2.85,0,0,1-1.314.577l-5.632,1.4a25.821,25.821,0,0,1-.554-3.229c.137-1.335-.085-1.193,1.051-1.9C1107.11,554.16,1109.625,555.109,1111.45,553.824Z"/><path class="b" d="M1069.041,417.27s5.382,20.494,6.118,24.6"/><line class="b" x2="2.789" y2="11.32" transform="translate(1073.714 416.751)"/><path class="g" d="M1089.141,409.923l3.388,13.246,1.855-.11-2.685-13.4Z"/><path class="d" d="M1168.269,531.84a2.34,2.34,0,0,1-.358.9c-2.985,3.852-17.348,9.84-29.766,14.474l-1.373-8.874-19.409-1.893-2.928-.285-.889-14.111-3.4-53.934-8.593-83.417-.367-3.546,35.9-7.156s.629,2.624,1.713,7.212C1145.695,410.475,1171,519.467,1168.269,531.84Z"/></g><path class="b" d="M1149.158,552a2.323,2.323,0,0,1-.358.895c-2.985,3.852-17.348,9.84-29.766,14.474-10.282,3.849-19.231,6.762-19.231,6.762s-16.089-57.384-17.041-63.53-27.7-103.9-27.7-103.9l27.014-5.387,35.9-7.156s.629,2.624,1.713,7.213C1126.584,430.637,1151.887,539.628,1149.158,552Z"/><path class="h" d="M1188.842,681.727c-.1-2.12-8.007-31.524-8.57-34.766-1.538-8.89-5.862-20.152-5.862-20.152-4.91-8.448-10.856-28.748-22.3-40.586s-13.856-27.473-17.476-40.523-3.053-11.944-4.481-23.785a175.392,175.392,0,0,0-5.283-26.341c-1.992-7.706-5.685-21.231-4.335-28.007s7.248-9.2,14.949-3.832,14.519,31.3,15.023,34.548,2.076,13.41,5.034,16.96c0,0,12.239-8.857,11.948-10.735s-3.255-18.409-1.436-19.6l-11.733-24.088,14.037-7.567a39.019,39.019,0,0,1,8.486,7.49,46.827,46.827,0,0,1,5.479,7.743c8.825,15.624,20.666,25.64,23.481,30.092s6.608,42.681,7.7,49.727,1.579,40.263,2.539,45.68c.7,3.909,5.646,18.23,10.05,29.095,1.7,4.189,12.537,34.771,13.794,37.136Z"/><path class="i" d="M1170,482.636c.231,2.14,5.393,18.685,5.393,18.685,2.415,3.943-4.967,19.82-4.967,19.82-1.893,1.494-1.677,8.867-1.677,8.867-6.725-.436-23.932-13.1-23.932-13.1s-.839,6.413-.444,21.9,18.491,49.636,27.685,73.723,8.214,34.43,8.214,34.43c-1.538-8.89-5.862-20.152-5.862-20.152-4.91-8.448-10.856-28.748-22.3-40.586s-13.856-27.473-17.476-40.523-3.053-11.944-4.481-23.785a175.392,175.392,0,0,0-5.283-26.341c-1.992-7.706-5.685-21.231-4.335-28.007s7.248-9.2,14.949-3.832,14.519,31.3,15.023,34.548,2.076,13.41,5.034,16.96c0,0,12.239-8.857,11.948-10.735s-3.255-18.409-1.436-19.6l-11.733-24.088,14.037-7.567a39.019,39.019,0,0,1,8.486,7.49C1173.51,471.124,1169.855,481.3,1170,482.636Z"/><path class="i" d="M1213.249,597.147c-.264-6.02-.5-20.423-.627-29.41-.448,7.1-2.331,10.956-2.331,10.956s-3.6-51.081-3.654-54.189,2.05-17.611-.836-25.927c2.812,4.442,6.608,42.681,7.7,49.727s1.579,40.263,2.539,45.68c.7,3.909,8.838,28.468,13.242,39.332C1222.263,625.9,1213.52,603.207,1213.249,597.147Z"/><path class="b" d="M1239.884,660.218c-4.52-8.508-22.883-60.82-23.846-66.234s-1.455-38.647-2.544-45.684-4.885-45.28-7.7-49.726-14.649-14.467-23.473-30.093a43.707,43.707,0,0,0-13.968-15.233l-14.039,7.576,11.734,24.079c-1.817,1.195,1.143,17.724,1.434,19.6s-11.949,10.735-11.949,10.735c-2.951-3.546-4.525-13.711-5.028-16.959s-7.318-29.167-15.022-34.542-13.6-2.937-14.952,3.833,2.342,20.3,4.334,28a174.555,174.555,0,0,1,5.28,26.344c1.434,11.848.861,10.735,4.483,23.785s6.043,28.688,17.483,40.528,17.385,32.136,22.3,40.583c0,0,14.079,46.97,14.436,54.921"/><path class="b" d="M1155.534,515.24s4.04,10.584,10.165,15.24"/><path class="b" d="M1157.732,520.015s10.38,1.484,14.515,1.044"/><path class="b" d="M1167.483,504.505s6.534-4.336,11.333-3.077"/><path class="b" d="M1166.049,484.9s5.4-1.349,6.145-4.267"/><path class="b" d="M1154.353,588.734s12.525,11.419,16.682,17.581"/><path class="b" d="M1206.642,522.14c-.156,10.632,1.887,39.339,1.892,44.542"/><path class="b" d="M1206.98,502.068c1.745,9.341.213,14.582.213,14.582"/><path class="e" d="M1105.821,383.228l75.429,7.875s-13.524,81.235-17.247,91.636l1.795,68.706s-46.6,5.134-68.882,1.994c0,0,2.589-72.259,1.867-81.713S1105.821,383.228,1105.821,383.228Z"/><g class="j"><path class="d" d="M1102.806,466.85l5.4-70.747s6.344-4.477,8.519-7.994l54.2,6.722s.947,5.065,4.421,7.871l-14.506,79.542,2.261,56.628s-8.348,1.988-8.186,8.368c0,0-27.162,5.719-46.287,3.72,0,0-3.21-6.418-7.179-10.173Z"/><path class="b" d="M1102.806,466.85l5.4-70.747s6.344-4.477,8.519-7.994l54.2,6.722s.947,5.065,4.421,7.871l-14.506,79.542,2.261,56.628s-8.348,1.988-8.186,8.368c0,0-27.162,5.719-46.287,3.72,0,0-3.21-6.418-7.179-10.173Z"/><path class="g" d="M1116.647,468.337s1.955-18.53,19.058-17.889,11.109,23.987,11.109,23.987,2.84,17.673-11.012,17.317C1123.8,491.444,1116.58,486,1116.647,468.337Z"/><path class="b" d="M1115.525,401.617s-1.872,21.106-2.569,25.218"/><line class="b" x1="1.207" y2="11.596" transform="translate(1118.891 402.711)"/><path class="g" d="M1157.96,404.855l10.535,1.972-.612,3.3-3.128.484-6.888-.535Z"/><path class="g" d="M1157.327,411.759l7.791,1.2,1.806,1.322-.928,4.347-9.055-1.6Z"/><path class="g" d="M1157.244,418.977l8.968,1.038-.731,3.291-4.555.705-4.475-1.109Z"/><path class="g" d="M1156.723,424.662l7.07,1.708.3,1.955-1.419,1.821-6.462-.8-.514-3.323Z"/><path class="g" d="M1163.748,432.611q.24,1.524.478,3.049a2.185,2.185,0,0,1-.32,1.949,1.662,1.662,0,0,1-1.6.244c-.543-.154-1.043-.441-1.592-.57-1.642-.387-3.432.691-5.008.088-.3-1.884-1.421-4.78.906-5.168C1156.969,432.144,1163.856,433.306,1163.748,432.611Z"/><path class="g" d="M1162.195,440.657a15.381,15.381,0,0,1-.053,2.125,2.659,2.659,0,0,1-1.2,2.326,2.851,2.851,0,0,1-1.43.105l-5.776-.561a26.072,26.072,0,0,1,.555-3.23c.575-1.211.319-1.152,1.625-1.44C1157.992,439.525,1160.045,441.258,1162.195,440.657Z"/><path class="g" d="M1136.925,401.507l-1.3,13.611,1.783.525,2.01-13.522Z"/><path class="g" d="M1108.812,495.909l10.665,1.063-.327,3.338-3.075.75-6.909.057Z"/><path class="g" d="M1108.773,502.841l7.865.524,1.912,1.162-.553,4.411-9.159-.82Z"/><path class="g" d="M1109.308,510.041l9.024.266-.446,3.342-4.478,1.092-4.554-.722Z"/><path class="g" d="M1109.275,515.749l7.19,1.1.469,1.922-1.258,1.936-6.507-.245-.8-3.267Z"/><path class="g" d="M1116.955,523.067l.738,3a2.187,2.187,0,0,1-.153,1.97,1.66,1.66,0,0,1-1.57.38c-.554-.107-1.076-.351-1.634-.432-1.67-.245-3.361.982-4.983.516-.464-1.851-1.825-4.64.46-5.227C1110.161,523.182,1117.122,523.75,1116.955,523.067Z"/><path class="g" d="M1116.1,531.217a15.043,15.043,0,0,1,.129,2.122,2.655,2.655,0,0,1-.992,2.419,2.855,2.855,0,0,1-1.417.228l-5.8-.065a26.131,26.131,0,0,1,.277-3.265c.469-1.257.219-1.175,1.5-1.574C1111.812,530.449,1114.006,532,1116.1,531.217Z"/><path class="b" d="M1158.511,534.473s-1.72-26.629-2.123-29.232"/><path class="b" d="M1153.638,534.026s-1.135-13.794-1.3-16.19"/><path class="g" d="M1133.781,527.015l-.767,16.009,3.17-.491-.1-15.875Z"/><path class="d" d="M1164.153,482.317c-7.08-.371-13.523-1.529-18.519-3.862,0,0,4.74,8.92,18.859,23.188l1.306,49.806s-30.415,3.353-53.847,2.984c3.956-20.851,10.886-60.275,8.245-67.466-3.623-9.872,1.739-23.017,1.739-23.017,22.2-7.647,41.674-28.34,54.614-45.289C1172.358,442.766,1166.535,475.027,1164.153,482.317Z"/></g><path class="b" d="M1105.821,383.228l75.429,7.875s-13.524,81.235-17.247,91.636l1.795,68.706s-46.6,5.134-68.882,1.994c0,0,2.589-72.259,1.867-81.713S1105.821,383.228,1105.821,383.228Z"/><path class="h" d="M1169.805,530.854l1.23,75.46c-3.021-4.481-10.493-11.763-14.333-15.388-1.425-1.358-2.354-2.2-2.354-2.2l-2.24-2.507c-11.436-11.84-13.856-27.473-17.476-40.523s-3.053-11.944-4.481-23.785a175.392,175.392,0,0,0-5.283-26.341c-1.992-7.706-5.685-21.231-4.335-28.007.659-3.32,2.422-5.6,4.947-6.412,2.619-.861,6.078-.152,10,2.58,7.7,5.375,14.519,31.3,15.023,34.548s2.076,13.41,5.034,16.96C1155.539,515.243,1163.68,526.2,1169.805,530.854Z"/><path class="i" d="M1150.512,581.077c2.557,2.4,4.618,6.1,6.19,9.849-1.425-1.358-2.354-2.2-2.354-2.2l-2.24-2.507c-11.436-11.84-13.856-27.473-17.476-40.523s-3.053-11.944-4.481-23.785a175.392,175.392,0,0,0-5.283-26.341c-1.992-7.706-5.685-21.231-4.335-28.007.659-3.32,2.422-5.6,4.947-6.412,5.2.632,10.858,4.906,13.93,13.244,5.162,14-9.976,4.388-11.174,17.111s3.81,15.328,6.136,18.125,1.014,9.952-.308,19.517S1143.491,574.483,1150.512,581.077Z"/><path class="b" d="M1169.805,530.856c-6.125-4.656-14.271-15.616-14.271-15.616-2.951-3.546-4.525-13.711-5.028-16.959s-7.318-29.167-15.022-34.542-13.6-2.937-14.952,3.833,2.342,20.3,4.334,28a174.555,174.555,0,0,1,5.28,26.344c1.434,11.848.861,10.735,4.483,23.785s6.043,28.688,17.483,40.528l2.241,2.508s12.525,11.419,16.682,17.581"/><path class="b" d="M1130.364,504.945s8.252-6.023,12.8-6.326"/><g class="k"><path d="M863.519,349.17c2.3,9.8,5.685,13.491,9.068,16.324,0,0,.079,5.575,4.422,8.724a29.661,29.661,0,0,0,3.734,2.763c4.078,3.057,8.572,6.517,8.573,6.518,2.111,6.111,4.97,13.509,8.057,20.789l-.154-1.656c3.164,7.73,6.268,15.43,7.141,17.982l.018.053c-.9-2.46-1.86-4.835-2.875-7.034l11.6,40.974c.276,1.65.557,3.272.85,4.834.549,4.608,2.068,13.356,5.706,13.969a2.035,2.035,0,0,0,.406.04s4.283,1.859,4.283-5.751c5.1-1.7,7.076-5.512,7.57-10.085a13.722,13.722,0,0,0,.086-4.348c-.087-1.675-.287-3.389-.538-5.093l16.354,21.53,1.6,2.1,20.256,26.669,27.254,35.875a12.756,12.756,0,0,0,17.873,2.441l33.784-25.676,13.2-10.023c10.124-5.269,7.481-15.678,4.676-19.371l-58.954-77.606a6.107,6.107,0,0,0,.915.045s1.686,3.977,5.853,3.342a4.763,4.763,0,0,0,2.483-.822,4.4,4.4,0,0,0,1.652-1.508,12.746,12.746,0,0,0,1.241-1.773c2.127-3.634.163-12.513-2.9-23.361-.195-.7-.387-1.375-.573-2.009l-.03-.1q-.386-1.338-.787-2.708c-3-10.411-8.614-30.846-9.649-40.861q-.111-1.455-.142-2.843c-.067-11.537,5.056-30.859,2.855-38.833-.29-1.049-.582-2.054-.884-3.04-1.637-5.334-3.1-10.379-5.675-15.394-3.131-6.105-6.863-11.969-10.349-17.885q-9.615-16.314-19.894-32.224c-3.151-4.876-6.849-9.316-10.424-13.91-1.634-2.1-5.213-5.261-5.835-7.956,0,0-31.693-2.62-49.438,8.652l1.671,25.219L895.7,304.529c-3.4,5.152-13.853,15.23-15.99,18.418-1.076,1.584-2.134,3.152-3.16,4.7-7.829,7.3-11.749,13-13.465,19.548C863.082,347.191,863.2,347.94,863.519,349.17ZM974.51,335.788l.007.018-.009-.023Zm-1.266-1.56.153.3a37.133,37.133,0,0,0-10.17-2.965C966.906,331.993,971.081,332.582,973.244,334.228Zm-13.352-3.061h0q-.831-.07-1.7-.115A11.59,11.59,0,0,1,959.892,331.167Zm13.7,3.76,2.125,4.225c2.969,8.5,9.662,28.537,9.689,28.619l0,.006a114.313,114.313,0,0,0,5.223,16.9,10.092,10.092,0,0,0-9.46,1.486l-16.2,12.306c-1.673-1.009-3.39-1.914-5.068-2.714l-15.172-11.865,12.035-49.475ZM912.162,448.878v0c-1.252-5.915-3.25-14.413-5.882-22.646A148.452,148.452,0,0,1,912.162,448.878Z"/><path d="M980.938,211.141l-.1-.437S980.873,210.863,980.938,211.141Z"/></g><path class="h" d="M924.667,447.059c-.962.615-14.5,8-21.272-14.156s-14.77-59.865-14.77-59.865l16.144-3.162s14.961,7.962,28.369,27.9c0,0,18.8,4.872,26.981,16.448,7.438,10.521-15.448,49.139-15.448,49.139Z"/><path class="b" d="M930.492,419.483c-4-6-11.579-18.621-21.8-22.6"/><path class="b" d="M941.808,413.028c-1.889-.748-6.526-3.409-8.67-3.51,0,0-9.433-18.68-25.015-24.742"/><path class="b" d="M950.464,406.153c-5.793-4.845-12.683-8.153-17.326-8.373,0,0-9.433-18.68-25.015-24.742"/><rect class="l" width="84.52" height="137.789" rx="10.917" transform="translate(1058.428 496.488) rotate(142.778)"/><path class="m" d="M917.3,433.794l46.984-35.7a12.744,12.744,0,0,1,17.873,2.441l67.918,89.412a12.757,12.757,0,0,1-2.442,17.862l-13.2,10.023-33.784,25.676a12.756,12.756,0,0,1-17.873-2.441l-27.253-35.875-20.257-26.669-20.408-26.868A12.742,12.742,0,0,1,917.3,433.794Z"/><path class="n" d="M955.528,505.193l78.91,12.64-33.784,25.676a12.756,12.756,0,0,1-17.873-2.441Z"/><path class="n" d="M917.3,433.794l46.984-35.7a12.744,12.744,0,0,1,17.873,2.441l67.918,89.412a12.671,12.671,0,0,1,2.278,4.895l-118.682-18.42-18.813-24.767A12.742,12.742,0,0,1,917.3,433.794Z"/><rect class="o" width="17.972" height="24.16" rx="4.075" transform="translate(1005.251 525.851) rotate(142.778)"/><line class="o" x1="14.322" y1="19.46" transform="translate(983.593 511.964)"/><line class="o" x1="14.322" y2="10.856" transform="translate(983.593 516.195)"/><path class="l" d="M970.176,403.924l2.442-1.8,29.823,39.262-2.418,1.834Z"/><path class="l" d="M966.041,406.985l2.441-1.811,29.859,39.321-2.406,1.834Z"/><path class="l" d="M961.906,410.034l2.442-1.8L994.252,447.6l-2.418,1.834Z"/><path class="l" d="M957.77,413.094l2.441-1.8,29.508,38.853-2.406,1.834Z"/><path class="l" d="M953.308,416.388l2.441-1.8L985.3,453.5l-2.418,1.834Z"/><path class="l" d="M953.308,462.174l2.441-1.8L985.3,499.287l-2.418,1.834Z"/><rect class="l" width="4.749" height="137.694" transform="matrix(-0.796, 0.605, -0.605, -0.796, 1021.46, 527.588)"/><path class="b" d="M917.3,433.794l46.984-35.7a12.744,12.744,0,0,1,17.873,2.441l67.918,89.412a12.757,12.757,0,0,1-2.442,17.862l-13.2,10.023-33.784,25.676a12.756,12.756,0,0,1-17.873-2.441l-27.253-35.875-20.257-26.669-20.408-26.868A12.742,12.742,0,0,1,917.3,433.794Z"/><path class="h" d="M955.359,202.271s-54.686-19.459-71.231,22.915c0,0,25.881,31.461,11.751,57.2-8.893,16.2-33.477,51.974-33.477,51.974s-10.265,9.749-13.465,19.548c0,0,1.759,10.912,9.505,18.3,0,0,.079,5.575,4.422,8.724s12.306,9.28,12.306,9.28,13.1,31.413,15.045,37.116,5.844,16.416,7.8,28.264,3.758,24.611,7.9,24.572c0,0,4.283,1.858,4.283-5.751,0,0,8.976-4.622,7.658-14.424s-2.548-14.857-2.2-20.375-1.416-24.642-5.845-30.64c0,0-1.479-26.856-3.694-33.849q-.1-.321-.2-.585c-2.328-5.911,20.989-28.751,33.608-34.865,0,0,1.318-2.468,6.219-1.8s13.189.991,14.618,4.622,10.9,31.988,10.9,31.988,7.676,36.384,23.008,36.382c0,0,2.333,5.561,8.336,2.519s2.073-19.594-.583-28.65-9.388-32.865-10.482-43.821,5.112-32.894,2.729-41.526-4.919-14.459-12.367-28.59S957.977,214.59,955.359,202.271Z"/><path class="b" d="M955.359,202.271s11.7,44.064,28.913,72.548,7.121,38.572,7.121,62.308,19.32,64.089,14.111,72.99-12.331,1.78-15.3-6.528,1.187-13.055,9.495-13.648"/><path class="b" d="M994.275,410.878s-9.985.6-16.129-15.369-15.972-56.518-26.211-68.8"/><path class="b" d="M960.017,341.664c-.058-.128-14.3-8.072-36.418-1.11"/><path class="b" d="M992.382,364a10.013,10.013,0,0,1-9.352,3.545"/><path class="b" d="M990.479,358.967a7.951,7.951,0,0,1-8.04,2.616"/><path class="b" d="M910.2,474.419c14.538-4.843,3.721-26.8,5.461-34.8s-2.784-23.351-6.264-31.667c0-9.743-3.48-33.407-3.48-33.407,2.149-7.522,20.074-29.713,37.493-36.66"/><path class="b" d="M899.537,463.367s1.079,16.8,6.384,16.8,4.986-11.324,2.771-19.726S897.921,453.284,899.537,463.367Z"/><path class="b" d="M899.537,463.367s-4.521-26.422-12.179-43.015"/><path class="b" d="M878.333,358.486c-3.7,5.995-5.344,11.673-6.717,18.9.348,4.526,5.54,19.311,11.612,33.627"/><path class="b" d="M874.7,388.83c-6.006-4.522-16.464-7.991-15.252-15.792a65.377,65.377,0,0,1,8.056-22.116"/><path class="b" d="M882.795,223.24s20.933,29.068,16.742,49.141c-3.084,14.768-22.914,40.589-37.135,61.982-7.829,7.3-11.748,13-13.465,19.548,2.515,12.362,6.582,15.965,10.508,19.127"/><path class="b" d="M877.208,384.033a17.718,17.718,0,0,0,13.958-1.9"/><path class="b" d="M878.357,379.056a13.125,13.125,0,0,0,8.283-1.455"/></g></svg>