<svg xmlns="http://www.w3.org/2000/svg" width="54.15" height="34.963" viewBox="0 0 54.15 34.963"><defs><style>.a{fill:#fff;}</style></defs><g transform="translate(-778.266 -2107.037)"><path class="a" d="M832.416,2137.49h-12.4c.012-3.2.159-6.4-1.333-9.406l2.061-.945a13.54,13.54,0,0,1,1.22,3.961c.173,1.355.268,2.72.4,4.114h7.8c.108-8.224-2.8-15.107-9.183-20.307a24.767,24.767,0,0,0-40.4,20.295h7.794c.06-7.91,3.439-13.759,10.859-16.807,5.317-2.185,10.505-1.447,15.423,1.569l-1.2,1.823c-1.061-.491-2.063-1.054-3.131-1.43a14.611,14.611,0,0,0-17.825,6.724,14.81,14.81,0,0,0-1.823,7.347c0,1,0,2,0,3.036H778.36c-.02-.033-.053-.061-.054-.09-.161-4.521.111-8.986,1.9-13.22,3.684-8.731,10.11-14.342,19.354-16.449a26.983,26.983,0,0,1,32.205,20.553c.273,1.232.375,2.5.559,3.755.025.17.062.339.094.509Z"/><path class="a" d="M808.464,2131.645l11.36-11.361,1.682,1.711a1.834,1.834,0,0,0-.435.264q-5.277,5.259-10.548,10.526a.7.7,0,0,0-.179,1,5.622,5.622,0,0,1-7.975,7.35,5.634,5.634,0,0,1,5.692-9.72C808.184,2131.486,808.3,2131.556,808.464,2131.645Zm-3.086,8.084a3.373,3.373,0,1,0-3.4-3.37A3.388,3.388,0,0,0,805.378,2139.729Z"/></g></svg>