<svg xmlns="http://www.w3.org/2000/svg" width="49.255" height="47.519" viewBox="0 0 49.255 47.519"><defs><style>.a{fill:#fff;}</style></defs><g transform="translate(-780.745 -1855.858)"><path class="a" d="M791.364,1899.153c0,.743.006,1.343,0,1.942-.009.673-.3.981-.964.982q-4.341.008-8.683,0c-.668,0-.968-.3-.968-.973q-.006-9.083,0-18.164c0-.707.3-1,1-1q4.289-.006,8.578,0c.759,0,1.034.29,1.04,1.068,0,.529,0,1.059.006,1.588a1.434,1.434,0,0,0,.045.188h.537c1.659,0,3.318-.018,4.977.013a2.757,2.757,0,0,1,1.15.287c1.8.9,3.567,1.85,5.359,2.76a2.1,2.1,0,0,0,.9.214c1.924.014,3.852.086,5.77-.027a3.751,3.751,0,0,1,4.036,4.73c.888-.313,1.74-.608,2.587-.914q3.554-1.284,7.1-2.576a6.446,6.446,0,0,1,3.219-.414,3.4,3.4,0,0,1,1.332,6.273,37.051,37.051,0,0,1-4.719,2.363c-4.7,1.86-9.454,3.586-14.16,5.432a9.256,9.256,0,0,1-2.84.427,10.5,10.5,0,0,1-4.918-.924c-2.632-1.1-5.3-2.118-7.991-3.072A9.589,9.589,0,0,0,791.364,1899.153Zm.024-1.641c.448,0,.836.022,1.222,0a4.96,4.96,0,0,1,2.207.407c2.817,1.116,5.657,2.174,8.475,3.289a6.948,6.948,0,0,0,2.409.46,10.514,10.514,0,0,0,4.317-.744c4.421-1.753,8.9-3.373,13.319-5.121a37.354,37.354,0,0,0,4.1-2.061,1.711,1.711,0,0,0,.8-1.962,1.653,1.653,0,0,0-1.637-1.253,4.517,4.517,0,0,0-1.309.1c-.645.166-1.268.422-1.9.646q-5.452,1.941-10.906,3.878a2.71,2.71,0,0,1-.878.138q-5.083.014-10.167.005a2.7,2.7,0,0,1-.423-.008.839.839,0,0,1-.039-1.665,2.649,2.649,0,0,1,.528-.017c3.036,0,6.072,0,9.108-.008a1.923,1.923,0,1,0-.08-3.842c-2.189-.007-4.378.013-6.566-.005a2.349,2.349,0,0,1-1.005-.244c-1.825-.922-3.631-1.881-5.454-2.809a2,2,0,0,0-.849-.211c-1.588-.02-3.177-.01-4.766-.008-.168,0-.336.02-.512.032Zm-8.915-13.86v16.707h7.155v-16.707Z"/><path class="a" d="M822.987,1868.968a13.109,13.109,0,1,1-13.039-13.11A13.123,13.123,0,0,1,822.987,1868.968Zm-1.69-.026a11.418,11.418,0,1,0-11.41,11.419A11.426,11.426,0,0,0,821.3,1868.942Z"/><path class="a" d="M803.785,1876c-.281-.226-.6-.364-.7-.595a1.366,1.366,0,0,1,.042-.841c.046-.166.241-.294.378-.431q5.779-5.784,11.561-11.564a3.811,3.811,0,0,1,.346-.327.837.837,0,0,1,1.184,1.172,2.714,2.714,0,0,1-.289.308q-5.836,5.838-11.68,11.67A6.656,6.656,0,0,1,803.785,1876Z"/><path class="a" d="M808.951,1865.085a2.959,2.959,0,0,1-2.966,2.956,3,3,0,0,1-2.955-2.983,2.963,2.963,0,0,1,2.982-2.94A2.926,2.926,0,0,1,808.951,1865.085Zm-1.694-.015a1.235,1.235,0,0,0-1.274-1.256,1.273,1.273,0,0,0-1.26,1.234,1.3,1.3,0,0,0,1.263,1.3A1.272,1.272,0,0,0,807.257,1865.07Z"/><path class="a" d="M813.747,1869.869a2.963,2.963,0,1,1-2.947,2.973A2.949,2.949,0,0,1,813.747,1869.869Zm.009,4.234a1.27,1.27,0,1,0-1.26-1.286A1.259,1.259,0,0,0,813.756,1874.1Z"/></g></svg>