<svg xmlns="http://www.w3.org/2000/svg" width="48.894" height="49.218" viewBox="0 0 48.894 49.218"><defs><style>.a{fill:none;stroke:#fff;stroke-linecap:round;stroke-linejoin:round;stroke-width:2px;}</style></defs><g transform="translate(-236.514 -2103.783)"><path class="a" d="M261.18,2104.783c12.856.01,23.361,10.266,23.226,22.931-.139,12.93-9.824,24.145-23.557,24.285-12.841.131-23.394-10.692-23.335-23.716A23.543,23.543,0,0,1,261.18,2104.783Zm1.992,10.409c-.3-.077-.436.116-.573.265q-5.709,6.22-11.4,12.454a2.452,2.452,0,0,0-.518,2.835,2.4,2.4,0,0,0,2.46,1.287q3.221,0,6.442.044c1.069.016,1.217.247.93,1.3-.474,1.73-.955,3.457-1.427,5.186-.395,1.444-.781,2.889-1.2,4.439a1.82,1.82,0,0,0,.394-.209q5.875-6.349,11.732-12.715a2.4,2.4,0,0,0,.509-2.822,2.645,2.645,0,0,0-2.648-1.558q-3.009.079-6.017.144c-1.389.029-1.542-.181-1.149-1.545.672-2.33,1.371-4.652,2-6.993A5.736,5.736,0,0,0,263.172,2115.192Z"/></g></svg>