<svg xmlns="http://www.w3.org/2000/svg" width="219.94" height="37.79" viewBox="0 0 219.94 37.79"><defs><style>.a{fill:#fff;}.b{fill:#00ff9d;}</style></defs><g transform="translate(-112.179 -57.265)"><path class="a" d="M236.379,75.775v-.22c3.02-1.54,5.06-3.9,5.06-7.8,0-6.7-4.29-10-12.91-10h-19.01v36.81h21.15q12.36,0,12.36-9.89C243.029,80.335,240.119,77.695,236.379,75.775Zm-17.19-10.33h8.24c2.25,0,3.68,1.21,3.68,3.13,0,2.7-1.65,4.4-4.23,4.4h-7.69Zm9.83,21.43h-9.83v-6.76h9.83c2.25,0,3.68,1.32,3.68,3.41S231.269,86.875,229.019,86.875Z"/><path class="a" d="M282.689,57.755l-12.2,22.41a.536.536,0,0,1-.99,0l-12.19-22.41h-10v36.81h9.56V73.855l6.53,11.81c1.65,3.02,3.63,4.06,6.49,4.06,2.74,0,4.72-1.04,6.42-4.06l6.59-11.81v20.71h9.67V57.755Z"/><path class="a" d="M319.369,65.395c5.22,0,10.17.77,12.75,1.76v-8.41c-2.58-.93-7.14-1.48-12.25-1.48-15.6,0-22.96,5.33-22.96,18.84,0,13.29,7.36,18.95,21.86,18.95a50.835,50.835,0,0,0,13.35-1.32V85.5a60.4,60.4,0,0,1-13.9,1.43c-7.2,0-11.32-3.29-11.32-10.98C306.9,68.355,311.019,65.395,319.369,65.395Z"/><path class="b" d="M172.829,63.1v2.28H149.4a10.8,10.8,0,0,0-10.08,14.6h-13.34V63.1c0-3.08,2.05-5.6,4.57-5.6h37.71C170.769,57.505,172.829,60.025,172.829,63.1Z"/><path class="b" d="M172.829,72.345v16.87c0,3.08-2.06,5.6-4.57,5.6h-37.71c-2.52,0-4.57-2.52-4.57-5.6v-2.28H149.4c.19,0,.38,0,.56-.01a10.632,10.632,0,0,0,3.62-.82c.09-.04.17-.08.25-.12a10.762,10.762,0,0,0,6.35-9.82,11.025,11.025,0,0,0-.69-3.83h7.55v.01Z"/><path class="b" d="M125.979,79.985v6.95h-10.33A3.472,3.472,0,0,1,113.2,81a3.422,3.422,0,0,1,2.45-1.02Z"/><path class="b" d="M155.209,76.165a5.805,5.805,0,1,1-5.81-5.81A5.806,5.806,0,0,1,155.209,76.165Z"/><path class="b" d="M186.519,68.865a3.5,3.5,0,0,1-3.48,3.48h-10.21v-6.96h10.21A3.482,3.482,0,0,1,186.519,68.865Z"/><path class="a" d="M155.209,76.165a5.805,5.805,0,1,1-5.81-5.81A5.806,5.806,0,0,1,155.209,76.165Z"/></g></svg>