<svg xmlns="http://www.w3.org/2000/svg" width="26.755" height="24.323" viewBox="0 0 26.755 24.323"><path d="M458.575,1532.917h7.3v-2.432h-7.3Zm4.865,2.433v-7.3h-2.432v7.3Zm-12.162-20.675a4.257,4.257,0,0,1,4.257,4.256h2.432a6.688,6.688,0,0,0-6.689-6.688Zm-4.256,4.256a4.256,4.256,0,0,1,4.256-4.256v-2.432a6.688,6.688,0,0,0-6.689,6.688Zm4.256,4.257a4.256,4.256,0,0,1-4.256-4.257h-2.433a6.689,6.689,0,0,0,6.689,6.689Zm4.257-4.257a4.257,4.257,0,0,1-4.257,4.257v2.432a6.689,6.689,0,0,0,6.689-6.689Zm-10.887,8.776a6.081,6.081,0,0,0-4.054,4.053l2.328.706a3.649,3.649,0,0,1,2.432-2.432Zm-1.883,7.643a11.507,11.507,0,0,1,.157-2.884l-2.328-.706a13.078,13.078,0,0,0-.261,3.59Zm5.473-7.905a13.031,13.031,0,0,0-3.59.262l.706,2.327a11.5,11.5,0,0,1,2.884-.157Zm0,2.432h5.472v-2.432h-5.472Zm17.634,3.04a1.216,1.216,0,1,0,0-2.432Zm-7.3-2.432a1.216,1.216,0,1,0,0,2.432Zm4.865-2.432a1.216,1.216,0,0,0-2.432,0Zm-2.432,7.3a1.216,1.216,0,1,0,2.432,0Zm-19.25-3.237,1.164.353Zm-1.425,3.237a1.216,1.216,0,1,0,2.432,0Zm4.668-6.48.353,1.164Zm8.709,1.007a1.216,1.216,0,1,0,0-2.432Z" transform="translate(-440.333 -1512.243)"/></svg>